<?xml version="1.0" encoding="UTF-8" standalone="no"?><svg xmlns="http://www.w3.org/2000/svg" xmlns:xlink="http://www.w3.org/1999/xlink" clip-rule="evenodd" stroke-miterlimit="4.00" viewBox="0 0 1024 768"><desc>SVG generated by Keynote</desc><defs></defs><g transform="matrix(1.00, 0.00, -0.00, -1.00, 0.0, 768.0)"><g><clipPath id="clip-0"><path d="M 0.0 768.0 L 1024.0 768.0 L 1024.0 0.0 L 0.0 0.0 Z M 0.0 768.0 "></path></clipPath><g clip-path="url(#clip-0)"><image xlink:href="26EB600FDAE12708D568FADCF55224CB.jpeg" width="1000.00" height="525.00" transform="matrix(1.46, 0.00, -0.00, -1.46, -219.4, 768.0)"></image></g></g><g><clipPath id="clip-1"><path d="M 0.0 768.0 L 1024.0 768.0 L 1024.0 0.0 L 0.0 0.0 Z M 0.0 768.0 "></path></clipPath><g clip-path="url(#clip-1)"><image xlink:href="41703920212D7589082DFE2FC72072DB.jpeg" width="1000.00" height="525.00" transform="matrix(1.46, 0.00, -0.00, -1.46, -219.0, 768.0)"></image></g></g><image xlink:href="A87DCE35595B0A826FC70DA0C4EF465B.png" width="867.00" height="133.00" transform="matrix(1.00, 0.00, -0.00, -1.00, 130.0, 642.0)"></image><text xml:space="preserve" font-family="DINCondensed-Bold" font-weight="bold" font-size="170.0" fill="#C41F60" transform="matrix(1.00, 0.00, -0.00, -1.00, 129.0, 517.0)">A</text><text xml:space="preserve" font-family="DINCondensed-Bold" font-weight="bold" font-size="170.0" fill="#C41F60" transform="matrix(1.00, 0.00, -0.00, -1.00, 199.9, 517.0)">P</text><text xml:space="preserve" font-family="DINCondensed-Bold" font-weight="bold" font-size="170.0" fill="#C41F60" transform="matrix(1.00, 0.00, -0.00, -1.00, 270.8, 517.0)">I</text><text xml:space="preserve" font-family="DINCondensed-Bold" font-weight="bold" font-size="170.0" fill="#C41F60" transform="matrix(1.00, 0.00, -0.00, -1.00, 307.2, 517.0)"> </text><text xml:space="preserve" font-family="DINCondensed-Bold" font-weight="bold" font-size="170.0" fill="#C41F60" transform="matrix(1.00, 0.00, -0.00, -1.00, 340.5, 517.0)">V</text><text xml:space="preserve" font-family="DINCondensed-Bold" font-weight="bold" font-size="170.0" fill="#C41F60" transform="matrix(1.00, 0.00, -0.00, -1.00, 411.4, 517.0)">E</text><text xml:space="preserve" font-family="DINCondensed-Bold" font-weight="bold" font-size="170.0" fill="#C41F60" transform="matrix(1.00, 0.00, -0.00, -1.00, 476.0, 517.0)">R</text><text xml:space="preserve" font-family="DINCondensed-Bold" font-weight="bold" font-size="170.0" fill="#C41F60" transform="matrix(1.00, 0.00, -0.00, -1.00, 550.1, 517.0)">S</text><text xml:space="preserve" font-family="DINCondensed-Bold" font-weight="bold" font-size="170.0" fill="#C41F60" transform="matrix(1.00, 0.00, -0.00, -1.00, 620.8, 517.0)">I</text><text xml:space="preserve" font-family="DINCondensed-Bold" font-weight="bold" font-size="170.0" fill="#C41F60" transform="matrix(1.00, 0.00, -0.00, -1.00, 657.2, 517.0)">O</text><text xml:space="preserve" font-family="DINCondensed-Bold" font-weight="bold" font-size="170.0" fill="#C41F60" transform="matrix(1.00, 0.00, -0.00, -1.00, 731.3, 517.0)">N</text><text xml:space="preserve" font-family="DINCondensed-Bold" font-weight="bold" font-size="170.0" fill="#C41F60" transform="matrix(1.00, 0.00, -0.00, -1.00, 808.5, 517.0)">I</text><text xml:space="preserve" font-family="DINCondensed-Bold" font-weight="bold" font-size="170.0" fill="#C41F60" transform="matrix(1.00, 0.00, -0.00, -1.00, 844.9, 517.0)">N</text><text xml:space="preserve" font-family="DINCondensed-Bold" font-weight="bold" font-size="170.0" fill="#C41F60" transform="matrix(1.00, 0.00, -0.00, -1.00, 922.0, 517.0)">G</text><g opacity="0.80"><g><clipPath id="clip-2"><path d="M 258.0 649.0 L 984.0 649.0 L 984.0 725.0 L 258.0 725.0 Z M 258.0 649.0 "></path></clipPath><g clip-path="url(#clip-2)"><path d="M 259.6 723.8 L 982.7 723.8 L 982.7 650.3 L 259.6 650.3 Z M 259.6 723.8 " fill="#000000"></path></g></g><image xlink:href="BAE46E7A52D2303DD02D2F29B019742D.png" width="706.00" height="44.00" transform="matrix(1.00, 0.00, -0.00, -1.00, 276.0, 709.0)"></image><g><clipPath id="clip-3"><path d="M 258.0 649.0 L 984.0 649.0 L 984.0 725.0 L 258.0 725.0 Z M 258.0 649.0 "></path></clipPath><g clip-path="url(#clip-3)"><text xml:space="preserve" font-family="DINAlternate-Bold" font-weight="bold" font-size="54.0" fill="#34A4DA" transform="matrix(1.00, 0.00, -0.00, -1.00, 277.3, 667.0)">T</text><text xml:space="preserve" font-family="DINAlternate-Bold" font-weight="bold" font-size="54.0" fill="#34A4DA" transform="matrix(1.00, 0.00, -0.00, -1.00, 304.3, 667.0)">H</text><text xml:space="preserve" font-family="DINAlternate-Bold" font-weight="bold" font-size="54.0" fill="#34A4DA" transform="matrix(1.00, 0.00, -0.00, -1.00, 339.3, 667.0)">E</text><text xml:space="preserve" font-family="DINAlternate-Bold" font-weight="bold" font-size="54.0" fill="#34A4DA" transform="matrix(1.00, 0.00, -0.00, -1.00, 369.4, 667.0)"> </text><text xml:space="preserve" font-family="DINAlternate-Bold" font-weight="bold" font-size="54.0" fill="#34A4DA" transform="matrix(1.00, 0.00, -0.00, -1.00, 382.3, 667.0)">T</text><text xml:space="preserve" font-family="DINAlternate-Bold" font-weight="bold" font-size="54.0" fill="#34A4DA" transform="matrix(1.00, 0.00, -0.00, -1.00, 409.3, 667.0)">E</text><text xml:space="preserve" font-family="DINAlternate-Bold" font-weight="bold" font-size="54.0" fill="#34A4DA" transform="matrix(1.00, 0.00, -0.00, -1.00, 439.3, 667.0)">N</text><text xml:space="preserve" font-family="DINAlternate-Bold" font-weight="bold" font-size="54.0" fill="#34A4DA" transform="matrix(1.00, 0.00, -0.00, -1.00, 476.3, 667.0)"> </text><text xml:space="preserve" font-family="DINAlternate-Bold" font-weight="bold" font-size="54.0" fill="#34A4DA" transform="matrix(1.00, 0.00, -0.00, -1.00, 489.2, 667.0)">C</text><text xml:space="preserve" font-family="DINAlternate-Bold" font-weight="bold" font-size="54.0" fill="#34A4DA" transform="matrix(1.00, 0.00, -0.00, -1.00, 519.2, 667.0)">O</text><text xml:space="preserve" font-family="DINAlternate-Bold" font-weight="bold" font-size="54.0" fill="#34A4DA" transform="matrix(1.00, 0.00, -0.00, -1.00, 552.2, 667.0)">M</text><text xml:space="preserve" font-family="DINAlternate-Bold" font-weight="bold" font-size="54.0" fill="#34A4DA" transform="matrix(1.00, 0.00, -0.00, -1.00, 593.1, 667.0)">M</text><text xml:space="preserve" font-family="DINAlternate-Bold" font-weight="bold" font-size="54.0" fill="#34A4DA" transform="matrix(1.00, 0.00, -0.00, -1.00, 634.0, 667.0)">A</text><text xml:space="preserve" font-family="DINAlternate-Bold" font-weight="bold" font-size="54.0" fill="#34A4DA" transform="matrix(1.00, 0.00, -0.00, -1.00, 666.9, 667.0)">N</text><text xml:space="preserve" font-family="DINAlternate-Bold" font-weight="bold" font-size="54.0" fill="#34A4DA" transform="matrix(1.00, 0.00, -0.00, -1.00, 703.9, 667.0)">D</text><text xml:space="preserve" font-family="DINAlternate-Bold" font-weight="bold" font-size="54.0" fill="#34A4DA" transform="matrix(1.00, 0.00, -0.00, -1.00, 737.9, 667.0)">M</text><text xml:space="preserve" font-family="DINAlternate-Bold" font-weight="bold" font-size="54.0" fill="#34A4DA" transform="matrix(1.00, 0.00, -0.00, -1.00, 778.8, 667.0)">E</text><text xml:space="preserve" font-family="DINAlternate-Bold" font-weight="bold" font-size="54.0" fill="#34A4DA" transform="matrix(1.00, 0.00, -0.00, -1.00, 808.8, 667.0)">N</text><text xml:space="preserve" font-family="DINAlternate-Bold" font-weight="bold" font-size="54.0" fill="#34A4DA" transform="matrix(1.00, 0.00, -0.00, -1.00, 845.8, 667.0)">T</text><text xml:space="preserve" font-family="DINAlternate-Bold" font-weight="bold" font-size="54.0" fill="#34A4DA" transform="matrix(1.00, 0.00, -0.00, -1.00, 872.8, 667.0)">S</text><text xml:space="preserve" font-family="DINAlternate-Bold" font-weight="bold" font-size="54.0" fill="#34A4DA" transform="matrix(1.00, 0.00, -0.00, -1.00, 903.7, 667.0)"> </text><text xml:space="preserve" font-family="DINAlternate-Bold" font-weight="bold" font-size="54.0" fill="#34A4DA" transform="matrix(1.00, 0.00, -0.00, -1.00, 916.7, 667.0)">O</text><text xml:space="preserve" font-family="DINAlternate-Bold" font-weight="bold" font-size="54.0" fill="#34A4DA" transform="matrix(1.00, 0.00, -0.00, -1.00, 949.6, 667.0)">F</text></g></g></g><image xlink:href="1D29C4F934229B1075B04008D7969E8D.png" width="49.00" height="110.00" transform="matrix(1.00, 0.00, -0.00, -1.00, 943.0, 134.0)"></image><text xml:space="preserve" font-family="AvenirNext-Medium" font-size="20.0" fill="#838686" transform="matrix(1.00, 0.00, -0.00, -1.00, 677.5, 57.5)">S</text><text xml:space="preserve" font-family="AvenirNext-Medium" font-size="20.0" fill="#838686" transform="matrix(1.00, 0.00, -0.00, -1.00, 688.9, 57.5)">p</text><text xml:space="preserve" font-family="AvenirNext-Medium" font-size="20.0" fill="#838686" transform="matrix(1.00, 0.00, -0.00, -1.00, 701.5, 57.5)">o</text><text xml:space="preserve" font-family="AvenirNext-Medium" font-size="20.0" fill="#838686" transform="matrix(1.00, 0.00, -0.00, -1.00, 713.7, 57.5)">n</text><text xml:space="preserve" font-family="AvenirNext-Medium" font-size="20.0" fill="#838686" transform="matrix(1.00, 0.00, -0.00, -1.00, 725.4, 57.5)">s</text><text xml:space="preserve" font-family="AvenirNext-Medium" font-size="20.0" fill="#838686" transform="matrix(1.00, 0.00, -0.00, -1.00, 734.3, 57.5)">o</text><text xml:space="preserve" font-family="AvenirNext-Medium" font-size="20.0" fill="#838686" transform="matrix(1.00, 0.00, -0.00, -1.00, 746.5, 57.5)">r</text><text xml:space="preserve" font-family="AvenirNext-Medium" font-size="20.0" fill="#838686" transform="matrix(1.00, 0.00, -0.00, -1.00, 753.3, 57.5)">e</text><text xml:space="preserve" font-family="AvenirNext-Medium" font-size="20.0" fill="#838686" transform="matrix(1.00, 0.00, -0.00, -1.00, 764.8, 57.5)">d</text><text xml:space="preserve" font-family="AvenirNext-Medium" font-size="20.0" fill="#838686" transform="matrix(1.00, 0.00, -0.00, -1.00, 777.5, 57.5)"> </text><text xml:space="preserve" font-family="AvenirNext-Medium" font-size="20.0" fill="#838686" transform="matrix(1.00, 0.00, -0.00, -1.00, 782.5, 57.5)">b</text><text xml:space="preserve" font-family="AvenirNext-Medium" font-size="20.0" fill="#838686" transform="matrix(1.00, 0.00, -0.00, -1.00, 795.2, 57.5)">y</text><text xml:space="preserve" font-family="AvenirNext-Medium" font-size="20.0" fill="#838686" transform="matrix(1.00, 0.00, -0.00, -1.00, 805.3, 57.5)"> </text><text xml:space="preserve" font-family="AvenirNext-Medium" font-size="20.0" fill="#838686" transform="matrix(1.00, 0.00, -0.00, -1.00, 810.3, 57.5)">R</text><text xml:space="preserve" font-family="AvenirNext-Medium" font-size="20.0" fill="#838686" transform="matrix(1.00, 0.00, -0.00, -1.00, 822.3, 57.5)">e</text><text xml:space="preserve" font-family="AvenirNext-Medium" font-size="20.0" fill="#838686" transform="matrix(1.00, 0.00, -0.00, -1.00, 833.6, 57.5)">x</text><text xml:space="preserve" font-family="AvenirNext-Medium" font-size="20.0" fill="#838686" transform="matrix(1.00, 0.00, -0.00, -1.00, 843.8, 57.5)"> </text><text xml:space="preserve" font-family="AvenirNext-Medium" font-size="20.0" fill="#838686" transform="matrix(1.00, 0.00, -0.00, -1.00, 848.8, 57.5)">S</text><text xml:space="preserve" font-family="AvenirNext-Medium" font-size="20.0" fill="#838686" transform="matrix(1.00, 0.00, -0.00, -1.00, 860.2, 57.5)">o</text><text xml:space="preserve" font-family="AvenirNext-Medium" font-size="20.0" fill="#838686" transform="matrix(1.00, 0.00, -0.00, -1.00, 872.4, 57.5)">f</text><text xml:space="preserve" font-family="AvenirNext-Medium" font-size="20.0" fill="#838686" transform="matrix(1.00, 0.00, -0.00, -1.00, 878.3, 57.5)">t</text><text xml:space="preserve" font-family="AvenirNext-Medium" font-size="20.0" fill="#838686" transform="matrix(1.00, 0.00, -0.00, -1.00, 884.9, 57.5)">w</text><text xml:space="preserve" font-family="AvenirNext-Medium" font-size="20.0" fill="#838686" transform="matrix(1.00, 0.00, -0.00, -1.00, 900.3, 57.5)">a</text><text xml:space="preserve" font-family="AvenirNext-Medium" font-size="20.0" fill="#838686" transform="matrix(1.00, 0.00, -0.00, -1.00, 911.2, 57.5)">r</text><text xml:space="preserve" font-family="AvenirNext-Medium" font-size="20.0" fill="#838686" transform="matrix(1.00, 0.00, -0.00, -1.00, 918.1, 57.5)">e</text></g></svg>