<svg xmlns="http://www.w3.org/2000/svg" xmlns:xlink="http://www.w3.org/1999/xlink" version="1.1" id="Layer_1" x="0px" y="0px" width="49px" height="110px" viewBox="0 0 62 140" enable-background="new 0 0 62 140" xml:space="preserve">
<polygon fill="#010101" points="0,0 0,140 31.11,121.253 62,140 62,0 "/>
<path fill="#FFFFFF" d="M48.528,72.017v-0.041l-0.035,0.022c-0.142-0.07-0.315-0.058-0.446,0.033L36.508,79.93  c-2.073-4.421-5.873-6.847-10.753-6.847h-0.097c-3.469,0-6.271,1.069-8.321,3.174c-2.569,2.514-3.87,6.389-3.87,11.521v16.259  c0,0.249,0.201,0.45,0.45,0.45h34.384c0.248,0,0.451-0.201,0.451-0.45v-9.53c0-0.249-0.203-0.448-0.451-0.448h-9.963v-3.483  l10.212-6.794c0.126-0.083,0.202-0.223,0.202-0.374V72.403C48.752,72.244,48.665,72.095,48.528,72.017z M29.972,94.058H22.62v-5.789  c0-1.759,0.471-4.706,3.626-4.706h0.098c2.304,0,3.626,1.696,3.626,4.657L29.972,94.058L29.972,94.058z"/>
<path fill="#FFFFFF" d="M48.754,26.656V15.701c0-0.162-0.087-0.309-0.227-0.387v-0.036l-0.027,0.02  c-0.146-0.071-0.315-0.153-0.448-0.062l-16.92,10.886L14.168,15.818c-0.133-0.089-0.303-0.097-0.448-0.027l-0.028-0.019v0.035  c-0.138,0.079-0.226,0.228-0.226,0.387v10.708c0,0.153,0.079,0.298,0.209,0.38l9.076,5.757l-9.074,5.71  c-0.132,0.083-0.212,0.226-0.212,0.382v30.57c0,0.25,0.202,0.451,0.45,0.451h34.384c0.249,0,0.451-0.201,0.451-0.451V39.868  c0-0.152-0.078-0.295-0.208-0.379l-9.771-6.251l9.771-6.203C48.674,26.953,48.754,26.809,48.754,26.656z M41.124,45.64  c0.168,0.116,0.307,0.377,0.307,0.583v13.955c0,0.205-0.167,0.372-0.371,0.372h-6.287c-0.204,0-0.372-0.167-0.372-0.372v-4.274  c0-0.204-0.166-0.372-0.37-0.372l-5.614-0.008c-0.205,0-0.372,0.167-0.372,0.371v4.284c0,0.205-0.167,0.372-0.372,0.372h-6.512  c-0.205,0-0.372-0.167-0.372-0.372V46.308c0-0.204,0.138-0.466,0.306-0.582l9.77-6.727c0.168-0.116,0.444-0.116,0.612,0  L41.124,45.64z"/>
</svg>